<svg xmlns="http://www.w3.org/2000/svg" width="13.441" height="15.285" viewBox="0 0 13.441 15.285">
  <g id="filter" transform="translate(-30.894 0)">
    <path id="Path_5711" data-name="Path 5711" d="M36.407,85.327H31.563a.668.668,0,0,0-.547,1.05L34.9,91.662c.177.256.124-.018.124,5.7a.7.7,0,0,0,1.121.561c1.718-1.295,2.135-1.441,2.135-2.118,0-4-.051-3.89.124-4.144l.831-1.132a4.461,4.461,0,0,1-2.826-5.2Z" transform="translate(0 -82.78)" fill="#e11818"/>
    <path id="Path_5712" data-name="Path 5712" d="M242.9.9a3.566,3.566,0,1,0,5.946,2.66A3.558,3.558,0,0,0,242.9.9Zm3.539,3.189a.449.449,0,0,1-.317.767c-.239,0-.3-.113-.85-.662-.539.537-.605.662-.85.662a.449.449,0,0,1-.317-.767l.53-.528-.53-.528a.449.449,0,0,1,.633-.636l.533.531.533-.531a.449.449,0,0,1,.633.636l-.53.528Z" transform="translate(-204.513 0)" fill="#e11818"/>
  </g>
</svg>
