<svg xmlns="http://www.w3.org/2000/svg" xmlns:xlink="http://www.w3.org/1999/xlink" width="11.974" height="15.949" viewBox="0 0 11.974 15.949">
  <defs>
    <clipPath id="clip-path">
      <rect width="11.973" height="15.949" fill="none"/>
    </clipPath>
  </defs>
  <g id="delete_2_" data-name="delete (2)" clip-path="url(#clip-path)">
    <g id="delete_2_2" data-name="delete (2)" transform="translate(-63.818 0)">
      <path id="Path_6901" data-name="Path 6901" d="M75.792,5.121H68.415l3.3-3.3a.467.467,0,0,0,0-.661L70.881.32a1.09,1.09,0,0,0-1.542,0l-.861.861L68.038.74a1.248,1.248,0,0,0-1.762,0L64.558,2.458a1.248,1.248,0,0,0,0,1.762L65,4.661l-.861.861a1.09,1.09,0,0,0,0,1.542l.837.837a.467.467,0,0,0,.661,0L66.82,6.716v7.209a2.025,2.025,0,0,0,2.025,2.025h4.922a2.025,2.025,0,0,0,2.025-2.025ZM65.659,4l-.441-.441a.312.312,0,0,1,0-.441L66.937,1.4a.312.312,0,0,1,.441,0l.441.441Zm4.035,9.333a.467.467,0,1,1-.935,0v-5.6a.467.467,0,0,1,.935,0Zm2.079,0a.467.467,0,0,1-.935,0v-5.6a.467.467,0,0,1,.935,0Zm2.079,0a.467.467,0,0,1-.935,0v-5.6a.467.467,0,0,1,.935,0Z" fill="#f1556c"/>
      <path id="Path_6902" data-name="Path 6902" d="M304.785,85.344a.78.78,0,0,0-.518.649h4.483v-.777a.779.779,0,0,0-1.029-.738l-2.927.862Z" transform="translate(-232.959 -81.806)" fill="#f1556c"/>
    </g>
  </g>
</svg>
