<svg xmlns="http://www.w3.org/2000/svg" width="46" height="46" viewBox="0 0 46 46"><g transform="translate(10453 23783)"><rect width="46" height="46" rx="3" transform="translate(-10453 -23783)" fill="#e11818"/><g transform="translate(-10474.895 -23776)"><path d="M42.084,85.327H32.251a1.355,1.355,0,0,0-1.11,2.132c.008.012-.209-.284,7.879,10.726.359.52.251-.036.251,11.574a1.424,1.424,0,0,0,2.275,1.139c3.487-2.628,4.334-2.924,4.334-4.3,0-8.115-.1-7.9.251-8.413l1.688-2.3a9.056,9.056,0,0,1-5.736-10.561Z" transform="translate(0 -80.156)" fill="#fff"/><path d="M244.14,1.828a7.239,7.239,0,1,0,12.069,5.4A7.222,7.222,0,0,0,244.14,1.828ZM251.323,8.3a.911.911,0,0,1-.643,1.556c-.486,0-.607-.23-1.725-1.343-1.095,1.09-1.228,1.343-1.725,1.343a.912.912,0,0,1-.643-1.556l1.077-1.073-1.077-1.073a.911.911,0,0,1,1.286-1.291l1.082,1.077,1.082-1.077a.911.911,0,0,1,1.286,1.291l-1.077,1.073Z" transform="translate(-198.032 0)" fill="#fff"/></g></g></svg>