<svg xmlns="http://www.w3.org/2000/svg" width="14" height="14.004" viewBox="0 0 14 14.004"><path d="M17.344,11.5A1.8,1.8,0,0,1,18.5,9.819a7.141,7.141,0,0,0-.864-2.082,1.826,1.826,0,0,1-.733.157,1.8,1.8,0,0,1-1.644-2.53A7.119,7.119,0,0,0,13.181,4.5a1.8,1.8,0,0,1-3.361,0,7.141,7.141,0,0,0-2.082.864,1.8,1.8,0,0,1-1.644,2.53,1.766,1.766,0,0,1-.733-.157A7.3,7.3,0,0,0,4.5,9.823a1.8,1.8,0,0,1,0,3.361,7.141,7.141,0,0,0,.864,2.082A1.8,1.8,0,0,1,7.741,17.64a7.183,7.183,0,0,0,2.082.864,1.8,1.8,0,0,1,3.354,0,7.141,7.141,0,0,0,2.082-.864,1.8,1.8,0,0,1,2.373-2.373,7.183,7.183,0,0,0,.864-2.082A1.81,1.81,0,0,1,17.344,11.5Zm-5.811,2.913A2.917,2.917,0,1,1,14.449,11.5,2.916,2.916,0,0,1,11.533,14.413Z" transform="translate(-4.5 -4.5)" fill="#0f75bc"/></svg>