<svg xmlns="http://www.w3.org/2000/svg" xmlns:xlink="http://www.w3.org/1999/xlink" width="20" height="20" viewBox="0 0 20 20"><defs><clipPath id="a"><rect width="20" height="20" transform="translate(942 -10222)" fill="none" stroke="#707070" stroke-width="1"/></clipPath></defs><g transform="translate(-942 10222)" clip-path="url(#a)"><g transform="translate(806.306 225.862)"><path d="M269.177,173.62a.54.54,0,0,0-.543.543v7.624a.543.543,0,0,0,.543.543h9.8a.547.547,0,0,0,.548-.543v-7.624a.544.544,0,0,0-.548-.543Zm9.8,9.8h-9.8a1.636,1.636,0,0,1-1.634-1.63v-7.624a1.637,1.637,0,0,1,1.634-1.634h9.8a1.638,1.638,0,0,1,1.639,1.634v7.624A1.637,1.637,0,0,1,278.975,183.417Z" transform="translate(-128.849 -10612.857)" fill="#002d60"/><path d="M276.207,178.662a.547.547,0,0,1-.543-.548v-2.721a3.267,3.267,0,0,0-6.533,0v2.721a.545.545,0,1,1-1.091,0v-2.721a4.355,4.355,0,1,1,8.711,0v2.721a.544.544,0,0,1-.543.548" transform="translate(-127.168 -10617.899)" fill="#002d60"/><path d="M270.153,174.279a.364.364,0,1,0,.364.364.365.365,0,0,0-.364-.364m0,1.818a1.453,1.453,0,1,1,1.455-1.455A1.453,1.453,0,0,1,270.153,176.1Z" transform="translate(-124.926 -10610.615)" fill="#002d60"/><path d="M269.453,176.733a.546.546,0,0,1-.543-.543v-2a.543.543,0,1,1,1.087,0v2a.543.543,0,0,1-.543.543" transform="translate(-124.226 -10609.073)" fill="#002d60"/></g></g></svg>