<svg xmlns="http://www.w3.org/2000/svg" width="101.637" height="103.275" viewBox="0 0 101.637 103.275"><path d="M80.888,11.086a50.812,50.812,0,1,1-59.056.02A4.933,4.933,0,0,1,29,12.684l3.238,5.758a4.916,4.916,0,0,1-1.352,6.352,34.422,34.422,0,1,0,40.962-.02,4.888,4.888,0,0,1-1.332-6.332l3.238-5.758a4.912,4.912,0,0,1,7.131-1.6ZM59.577,54.1V4.918A4.906,4.906,0,0,0,54.659,0H48.1a4.906,4.906,0,0,0-4.918,4.918V54.1A4.906,4.906,0,0,0,48.1,59.015h6.557A4.906,4.906,0,0,0,59.577,54.1Z" transform="translate(-0.563)" fill="#ffa61a"/></svg>