<svg id="statistics" xmlns="http://www.w3.org/2000/svg" width="26.434" height="26.428" viewBox="0 0 26.434 26.428">
  <g id="Group_6047" data-name="Group 6047" transform="translate(0 10.38)">
    <g id="Group_6046" data-name="Group 6046">
      <path id="Path_6282" data-name="Path 6282" d="M6.608,187.75H.946A.949.949,0,0,0,0,188.7v14.157a.945.945,0,0,0,.946.946H6.608a.945.945,0,0,0,.946-.946V188.7A.945.945,0,0,0,6.608,187.75Z" transform="translate(0 -187.75)" fill="#8fc34d"/>
    </g>
  </g>
  <g id="Group_6049" data-name="Group 6049" transform="translate(9.44 0)">
    <g id="Group_6048" data-name="Group 6048" transform="translate(0 0)">
      <path id="Path_6283" data-name="Path 6283" d="M177.308.05h-5.663a.944.944,0,0,0-.946.94V25.532a.945.945,0,0,0,.946.946h5.663a.945.945,0,0,0,.946-.946V1A.945.945,0,0,0,177.308.05Z" transform="translate(-170.7 -0.05)" fill="#8fc34d"/>
    </g>
  </g>
  <g id="Group_6051" data-name="Group 6051" transform="translate(18.88 7.548)">
    <g id="Group_6050" data-name="Group 6050">
      <path id="Path_6284" data-name="Path 6284" d="M348.008,136.55h-5.663a.942.942,0,0,0-.946.946v16.988a.945.945,0,0,0,.946.946h5.663a.945.945,0,0,0,.946-.946V137.5A.945.945,0,0,0,348.008,136.55Z" transform="translate(-341.4 -136.55)" fill="#8fc34d"/>
    </g>
  </g>
</svg>
