<svg xmlns="http://www.w3.org/2000/svg" width="26.547" height="30.204" viewBox="0 0 26.547 30.204">
  <g id="profits" transform="translate(-31 0)">
    <path id="Path_6287" data-name="Path 6287" d="M151.881,5.368h.885V7.2a.884.884,0,0,0,.885.885h3.54a.884.884,0,0,0,.885-.885V5.368h.885a.885.885,0,0,0,.626-1.511l-3.54-3.6a.885.885,0,0,0-1.251,0l-3.54,3.6a.885.885,0,0,0,.626,1.511Z" transform="translate(-112.917 0)" fill="#46c1ab"/>
    <path id="Path_6288" data-name="Path 6288" d="M248.079,272a7.079,7.079,0,1,0,7.079,7.079A7.079,7.079,0,0,0,248.079,272Zm1.483,10.264a3.327,3.327,0,0,1-.6.228v.245a.885.885,0,1,1-1.77,0v-.217a2.813,2.813,0,0,1-1-.467.885.885,0,0,1,1.062-1.416,1.6,1.6,0,0,0,1.517.044c.194-.1.3-.214.3-.274,0-.106,0-.122-.118-.185a4.2,4.2,0,0,0-1.034-.272,5.309,5.309,0,0,1-1.544-.451,1.883,1.883,0,0,1-1.054-1.746,2.089,2.089,0,0,1,1.276-1.858,3.329,3.329,0,0,1,.6-.229v-.243a.885.885,0,0,1,1.77,0v.217a2.815,2.815,0,0,1,1,.467.885.885,0,0,1-1.062,1.416,1.6,1.6,0,0,0-1.519-.044c-.2.1-.3.212-.3.275,0,.106,0,.122.118.185a4.2,4.2,0,0,0,1.034.272,5.311,5.311,0,0,1,1.544.451,1.883,1.883,0,0,1,1.054,1.746A2.09,2.09,0,0,1,249.562,282.264Z" transform="translate(-197.611 -255.954)" fill="#46c1ab"/>
    <path id="Path_6289" data-name="Path 6289" d="M91.885,169.655h15.928a.885.885,0,0,0,.885-.885v-.885a.885.885,0,0,0-.885-.885H91.885a.885.885,0,0,0-.885.885v.885A.885.885,0,0,0,91.885,169.655Z" transform="translate(-56.46 -157.148)" fill="#46c1ab"/>
    <path id="Path_6290" data-name="Path 6290" d="M61,467.885v.885a.885.885,0,0,0,.885.885H73.443A8.867,8.867,0,0,1,71.08,467h-9.2A.885.885,0,0,0,61,467.885Z" transform="translate(-28.23 -439.45)" fill="#46c1ab"/>
    <path id="Path_6291" data-name="Path 6291" d="M61,317.885v.885a.885.885,0,0,0,.885.885h8.143A8.735,8.735,0,0,1,71.08,317H61.885A.885.885,0,0,0,61,317.885Z" transform="translate(-28.23 -298.299)" fill="#46c1ab"/>
    <path id="Path_6292" data-name="Path 6292" d="M31.885,394.655H42.071A8.725,8.725,0,0,1,41.619,392H31.885a.885.885,0,0,0-.885.885v.885A.885.885,0,0,0,31.885,394.655Z" transform="translate(0 -368.875)" fill="#46c1ab"/>
    <path id="Path_6293" data-name="Path 6293" d="M31.885,244.655H44.164a8.815,8.815,0,0,1,6.3-2.655H31.885a.885.885,0,0,0-.885.885v.885A.885.885,0,0,0,31.885,244.655Z" transform="translate(0 -227.724)" fill="#46c1ab"/>
  </g>
</svg>
