<svg id="add" xmlns="http://www.w3.org/2000/svg" width="27.912" height="27.912" viewBox="0 0 27.912 27.912">
  <path id="Path_6285" data-name="Path 6285" d="M16.573,0H3.2A3.2,3.2,0,0,0,0,3.2V21.225a3.2,3.2,0,0,0,3.2,3.2h7.664a10.155,10.155,0,0,1-.977-4.361,10.051,10.051,0,0,1,.733-3.791.614.614,0,0,1-.151.012H4.652a1.163,1.163,0,1,1,0-2.326h5.815a1.15,1.15,0,0,1,1.023.628,10.266,10.266,0,0,1,2.884-2.954H4.652a1.163,1.163,0,1,1,0-2.326H15.119a1.166,1.166,0,0,1,1.163,1.163.614.614,0,0,1-.012.151,9.746,9.746,0,0,1,3.5-.721V3.2A3.2,3.2,0,0,0,16.573,0ZM9.3,6.978H4.652a1.163,1.163,0,0,1,0-2.326H9.3a1.163,1.163,0,1,1,0,2.326Z" fill="#8fc34d"/>
  <path id="Path_6286" data-name="Path 6286" d="M18.35,10.5a7.85,7.85,0,1,0,7.85,7.85A7.859,7.859,0,0,0,18.35,10.5Zm3.2,9.013H19.513v2.035a1.163,1.163,0,1,1-2.326,0V19.513H15.152a1.163,1.163,0,1,1,0-2.326h2.035V15.152a1.163,1.163,0,1,1,2.326,0v2.035h2.035a1.163,1.163,0,1,1,0,2.326Z" transform="translate(1.712 1.712)" fill="#8fc34d"/>
</svg>
