<svg xmlns="http://www.w3.org/2000/svg" width="26.244" height="26.244" viewBox="0 0 26.244 26.244">
  <path id="Path_6294" data-name="Path 6294" d="M23.62,0h-21A2.633,2.633,0,0,0,0,2.624v21a2.633,2.633,0,0,0,2.624,2.624h21a2.633,2.633,0,0,0,2.624-2.624v-21A2.633,2.633,0,0,0,23.62,0ZM7.082,23.1H3.062V19.52H7.082V23.1Zm0-4.776H3.062V14.747H7.082v3.574ZM6.78,3.978A1.114,1.114,0,1,1,7.893,2.863,1.113,1.113,0,0,1,6.78,3.978ZM12.448,23.1H8.428V19.52h4.02Zm0-4.776H8.428V14.747h4.02Zm0-4.772H8.428V9.975h4.02ZM12.008,2.863a1.114,1.114,0,1,1,1.114,1.114A1.113,1.113,0,0,1,12.008,2.863Zm5.808,15.458H13.8V14.747h4.021v3.574Zm0-4.772H13.8V9.975h4.021v3.574Zm.535-10.686a1.114,1.114,0,1,1,1.114,1.114A1.113,1.113,0,0,1,18.351,2.863Zm4.832,15.458H19.162V14.747h4.021Zm0-4.772H19.162V9.975h4.021Z" fill="#5215ff"/>
</svg>
