<svg xmlns="http://www.w3.org/2000/svg" width="26.201" height="26.196" viewBox="0 0 26.201 26.196">
  <g id="statistics" transform="translate(0 0)">
    <g id="Group_6047" data-name="Group 6047" transform="translate(0 10.288)">
      <g id="Group_6046" data-name="Group 6046">
        <path id="Path_6282" data-name="Path 6282" d="M6.55,187.75H.937a.94.94,0,0,0-.937.937V202.72a.937.937,0,0,0,.937.937H6.55a.937.937,0,0,0,.937-.937V188.687A.937.937,0,0,0,6.55,187.75Z" transform="translate(0 -187.75)" fill="#fff"/>
      </g>
    </g>
    <g id="Group_6049" data-name="Group 6049" transform="translate(9.357 0)">
      <g id="Group_6048" data-name="Group 6048" transform="translate(0 0)">
        <path id="Path_6283" data-name="Path 6283" d="M177.25.05h-5.613a.936.936,0,0,0-.937.932V25.308a.937.937,0,0,0,.937.937h5.613a.937.937,0,0,0,.937-.937V.987A.937.937,0,0,0,177.25.05Z" transform="translate(-170.7 -0.05)" fill="#fff"/>
      </g>
    </g>
    <g id="Group_6051" data-name="Group 6051" transform="translate(18.714 7.482)">
      <g id="Group_6050" data-name="Group 6050">
        <path id="Path_6284" data-name="Path 6284" d="M347.95,136.55h-5.613a.933.933,0,0,0-.937.937v16.839a.937.937,0,0,0,.937.937h5.613a.937.937,0,0,0,.937-.937V137.487A.937.937,0,0,0,347.95,136.55Z" transform="translate(-341.4 -136.55)" fill="#fff"/>
      </g>
    </g>
  </g>
</svg>
