<svg xmlns="http://www.w3.org/2000/svg" width="20.002" height="19.994" viewBox="0 0 20.002 19.994"><path d="M-9751.832,14.578a5.423,5.423,0,0,1,5.417-5.416A5.425,5.425,0,0,1-9741,14.581a5.421,5.421,0,0,1-5.416,5.414A5.423,5.423,0,0,1-9751.832,14.578Zm7.286,1.09a.634.634,0,0,0,.421.162.615.615,0,0,0,.463-.206.622.622,0,0,0-.044-.882L-9746,12.66a.622.622,0,0,0-.841,0l-2.293,2.082a.623.623,0,0,0-.041.882.626.626,0,0,0,.884.044l1.869-1.7Zm-16.114-3.03a.637.637,0,0,1-.341-.559V4.765l3.126,1.516V8.946a.631.631,0,0,0,.625.625.63.63,0,0,0,.624-.625V6.9l.417.2,2.935,1.426-.01,4.307a7.236,7.236,0,0,0-.216,1.752,7.111,7.111,0,0,0,.216,1.734v.115Zm8.635-4.125,7.692-3.741c.007.7.007,2.065.007,3.04a6.924,6.924,0,0,0-2.089-.316,7.065,7.065,0,0,0-5.61,2.766Zm-3.518-2.474-.416-.208,7.574-3.817.419.208,3.008,1.458-7.7,3.758Zm-4.833-2.359,7.435-3.616a.6.6,0,0,1,.541,0l2.6,1.257-7.564,3.817Z" transform="translate(9761.001)" fill="#42df52"/></svg>