<svg xmlns="http://www.w3.org/2000/svg" width="46" height="46" viewBox="0 0 46 46"><g transform="translate(10507 23786)"><rect width="46" height="46" rx="3" transform="translate(-10507 -23786)" fill="#1f78b4"/><g transform="translate(-10496.001 -23775)"><path d="M23.56,21.211l-5.082-5.083A10.19,10.19,0,0,0,10.2,0,10.2,10.2,0,0,0,0,10.2a10.183,10.183,0,0,0,16.126,8.283l5.082,5.083a1.662,1.662,0,1,0,2.351-2.351ZM5.338,15.054A6.871,6.871,0,1,1,10.2,17.066,6.828,6.828,0,0,1,5.338,15.054Z" transform="translate(0 0)" fill="#fff"/></g></g></svg>