<svg xmlns="http://www.w3.org/2000/svg" width="12" height="12" viewBox="0 0 12 12"><path d="M-2.692-6.14H2.1a.265.265,0,0,1,.266.181.242.242,0,0,1-.073.3l-2.4,2.4a.242.242,0,0,1-.387,0l-2.4-2.4a.242.242,0,0,1-.073-.3A.265.265,0,0,1-2.692-6.14ZM3.949-9.418A5.783,5.783,0,0,1,5.7-5.172,5.783,5.783,0,0,1,3.949-.926,5.783,5.783,0,0,1-.3.828,5.783,5.783,0,0,1-4.543-.926,5.783,5.783,0,0,1-6.3-5.172,5.783,5.783,0,0,1-4.543-9.418,5.783,5.783,0,0,1-.3-11.172,5.783,5.783,0,0,1,3.949-9.418ZM3.127-1.748A4.663,4.663,0,0,0,4.542-5.172,4.663,4.663,0,0,0,3.127-8.6,4.663,4.663,0,0,0-.3-10.011,4.663,4.663,0,0,0-3.72-8.6,4.663,4.663,0,0,0-5.136-5.172,4.663,4.663,0,0,0-3.72-1.748,4.663,4.663,0,0,0-.3-.333,4.663,4.663,0,0,0,3.127-1.748Z" transform="translate(11.172 5.703) rotate(-90)" fill="#2d2828"/></svg>